<svg width="100" height="100" viewBox="0 0 100 100" fill="none" xmlns="http://www.w3.org/2000/svg">
<path d="M12.5 12.5V87.5H87.5V12.5H12.5ZM37.8125 28.125C40.3125 28.125 42.1875 30 42.1875 32.5C42.1875 35 40.3125 36.875 37.8125 36.875C35.3125 36.875 33.4375 35 33.4375 32.5C33.75 30 35.625 28.125 37.8125 28.125ZM67.1875 69.375C62.8125 69.375 60.625 66.875 60.625 63.125C60.625 62.1875 60.625 60.9375 60.9375 60L63.125 52.5C63.4375 51.875 63.4375 50.9375 63.4375 50.3125C63.4375 47.8125 61.875 46.25 59.6875 46.25C56.5625 46.25 54.6875 48.4375 53.75 52.5L49.6875 68.75H42.5L43.75 63.4375C41.5625 66.875 38.75 69.0625 35 69.0625C30.625 69.0625 28.4375 66.5625 28.4375 62.8125C28.4375 61.875 28.4375 60.625 28.75 59.6875L32.1875 46.25H27.1875L28.75 40.625H40.9375L36.25 59.6875C35.9375 60.625 35.9375 61.5625 35.9375 62.5C35.9375 63.75 36.5625 64.0625 37.5 64.375C38.125 64.375 42.5 64.375 45 58.75L48.125 45.9375H43.125L44.6875 40.3125H55.625L54.0625 46.875C55.9375 43.125 60 40 63.75 40C67.8125 40 71.25 42.8125 71.25 48.4375C71.25 50 70.9375 51.5625 70.625 53.125L68.4375 60.625C68.125 61.25 68.125 61.875 68.125 62.5C68.125 63.75 68.75 64.375 69.6875 64.375C70.625 64.375 71.875 63.75 73.4375 59.6875L76.25 60.9375C74.0625 66.875 70.9375 69.375 67.1875 69.375Z" fill="black"/>
</svg>
