<svg width="100" height="100" viewBox="0 0 100 100" fill="none" xmlns="http://www.w3.org/2000/svg">
<path fill-rule="evenodd" clip-rule="evenodd" d="M50 6.25C39.6134 6.2514 29.5661 9.94807 21.6553 16.6787C13.7446 23.4094 8.48646 32.735 6.82159 42.9873C5.15671 53.2396 7.19368 63.7498 12.5681 72.6379C17.9425 81.5259 26.3038 88.212 36.1563 91.5C38.3438 91.9063 39.2813 90.5625 39.2813 89.4063V81.9688C27.125 84.5938 24.5625 76.0938 24.5625 76.0938C23.7077 73.4151 21.9085 71.1384 19.5 69.6875C15.5313 67 19.8125 67.0313 19.8125 67.0313C21.1988 67.2271 22.5219 67.7371 23.681 68.5225C24.84 69.3078 25.8042 70.3476 26.5 71.5625C27.7105 73.7335 29.7336 75.335 32.1245 76.0148C34.5154 76.6946 37.0784 76.397 39.25 75.1875C39.4264 72.9702 40.404 70.893 42 69.3438C32.3125 68.2188 22.0938 64.4688 22.0938 47.7188C22.0229 43.3684 23.6351 39.1588 26.5938 35.9688C25.2546 32.2006 25.4112 28.0624 27.0313 24.4063C27.0313 24.4063 30.6875 23.2188 39.0625 28.875C46.2234 26.9217 53.7766 26.9217 60.9375 28.875C69.2813 23.2188 72.9375 24.4063 72.9375 24.4063C74.5576 28.0624 74.7142 32.2006 73.375 35.9688C76.3337 39.1588 77.9459 43.3684 77.875 47.7188C77.875 64.5313 67.6563 68.2188 57.9063 69.3125C58.9507 70.3711 59.7561 71.6413 60.2682 73.0375C60.7803 74.4337 60.9872 75.9234 60.875 77.4063V89.4063C60.875 90.8438 61.6563 91.9375 64 91.5C73.8654 88.2079 82.2353 81.509 87.6089 72.6046C92.9825 63.7001 95.0082 53.1727 93.3229 42.91C91.6375 32.6472 86.3513 23.3206 78.4121 16.6024C70.4729 9.88425 60.4001 6.21407 50 6.25V6.25Z" fill="black"/>
</svg>
