<svg width="100" height="100" viewBox="0 0 100 100" fill="none" xmlns="http://www.w3.org/2000/svg">
<path d="M87.2187 55.875C87.5338 53.9326 87.6905 51.9678 87.6875 50C87.6875 40.0047 83.7169 30.4187 76.6491 23.3509C69.5813 16.2831 59.9953 12.3125 50 12.3125C48.0322 12.3094 46.0674 12.4662 44.125 12.7813C39.769 10.1719 34.6661 9.09263 29.6266 9.71486C24.5871 10.3371 19.8999 12.6251 16.3094 16.2156C12.7189 19.8062 10.4308 24.4933 9.80861 29.5328C9.18638 34.5723 10.2656 39.6752 12.875 44.0313C12.5234 46.0019 12.3353 47.9983 12.3125 50C12.3125 59.9953 16.2831 69.5813 23.3509 76.6491C30.4187 83.7169 40.0047 87.6875 50 87.6875C51.9678 87.6906 53.9326 87.5338 55.875 87.2188C60.231 89.8281 65.3339 90.9074 70.3734 90.2851C75.4129 89.6629 80.1001 87.3749 83.6906 83.7844C87.2811 80.1938 89.5692 75.5067 90.1914 70.4672C90.8136 65.4277 89.7344 60.3248 87.125 55.9688L87.2187 55.875ZM67.9062 67.125C66.1423 69.5637 63.7116 71.441 60.9062 72.5313C57.445 73.8896 53.7487 74.5481 50.0312 74.4688C45.7043 74.6499 41.3996 73.7589 37.5 71.875C35.2265 70.6529 33.2769 68.9068 31.8125 66.7813C30.4711 64.9655 29.7087 62.7872 29.625 60.5313C29.6217 59.9459 29.7394 59.3662 29.9706 58.8285C30.2018 58.2907 30.5416 57.8065 30.9687 57.4063C31.9153 56.6007 33.1337 56.1871 34.375 56.25C35.4123 56.2304 36.422 56.5854 37.2187 57.25C38.0909 58.0658 38.7644 59.0707 39.1875 60.1875C39.7297 61.4925 40.4218 62.73 41.25 63.875C42.0754 64.9321 43.1488 65.7693 44.375 66.3125C46.0406 67.0271 47.8455 67.3581 49.6562 67.2813C52.2354 67.4062 54.7899 66.7294 56.9687 65.3438C57.8049 64.8539 58.5004 64.1563 58.9877 63.3186C59.475 62.4809 59.7376 61.5315 59.75 60.5625C59.777 59.8839 59.6601 59.2073 59.407 58.5772C59.1538 57.947 58.7702 57.3776 58.2812 56.9062C57.1685 55.8811 55.8305 55.1318 54.375 54.7188C52.75 54.1875 50.5937 53.6562 47.875 53.0625C44.7526 52.3356 41.7073 51.31 38.7812 50C36.4788 49.0564 34.4486 47.5525 32.875 45.625C31.3825 43.6382 30.611 41.2025 30.6875 38.7188C30.6623 36.1938 31.4756 33.7318 33 31.7187C34.7412 29.5555 37.06 27.9301 39.6875 27.0312C43.0098 25.9278 46.501 25.42 50 25.5313C52.7378 25.4828 55.467 25.8516 58.0937 26.625C60.1552 27.2371 62.0915 28.2106 63.8125 29.5C65.1668 30.5172 66.2948 31.8049 67.125 33.2812C67.8006 34.4739 68.1659 35.817 68.1875 37.1875C68.1835 37.7717 68.0626 38.3492 67.8318 38.8859C67.601 39.4227 67.265 39.9077 66.8437 40.3125C66.4184 40.7733 65.9009 41.1394 65.3249 41.3871C64.7488 41.6348 64.127 41.7584 63.5 41.75C62.4947 41.8282 61.4982 41.5147 60.7187 40.875C59.8987 40.0849 59.2127 39.1667 58.6875 38.1563C57.9135 36.5635 56.7923 35.1646 55.4062 34.0625C53.5874 32.9286 51.4464 32.4236 49.3125 32.625C47.1221 32.5327 44.9517 33.0753 43.0625 34.1875C42.3762 34.5539 41.7967 35.092 41.3805 35.7493C40.9642 36.4065 40.7255 37.1605 40.6875 37.9375C40.6628 38.7865 40.9395 39.6169 41.4688 40.2813C42.092 41.0034 42.8581 41.5886 43.7187 42C44.6353 42.4741 45.5988 42.8512 46.5937 43.125C47.5937 43.4063 49.2187 43.8125 51.5 44.3437C54.375 44.9687 56.9375 45.6563 59.2812 46.4063C61.3777 47.045 63.3758 47.9704 65.2188 49.1562C66.8263 50.1729 68.149 51.5816 69.0625 53.25C69.9912 55.1528 70.4213 57.2604 70.3125 59.375C70.3407 62.1464 69.4991 64.8569 67.9062 67.125V67.125Z" fill="black"/>
</svg>
