<svg width="100" height="100" viewBox="0 0 100 100" fill="none" xmlns="http://www.w3.org/2000/svg">
<path d="M80.3125 22.1875C74.6875 19.6875 68.75 17.8125 62.5 16.5625H62.1875C61.5625 17.8125 60.625 19.6875 60 21.25C53.125 20.3125 46.5625 20.3125 40 21.25C39.375 19.6875 38.4375 18.125 37.8125 16.5625H37.5C31.25 17.5 25.3125 19.375 19.6875 22.1875C8.4375 39.0625 5.3125 55.625 6.875 71.875V72.1875C14.375 77.8125 21.5625 80.9375 28.75 83.125H29.0625C30.625 80.9375 32.1875 78.4375 33.4375 75.9375V75.625C30.9375 74.6875 28.75 73.75 26.5625 72.5C26.25 72.5 26.25 72.1875 26.5625 72.1875C26.875 71.875 27.5 71.5625 27.8125 71.25H28.125C42.5 77.8125 57.8125 77.8125 72.1875 71.25H72.5C72.8125 71.5625 73.4375 71.875 73.75 72.1875C74.0625 72.1875 73.75 72.5 73.75 72.5C71.5625 73.75 69.375 75 66.875 75.625C66.875 75.625 66.5625 75.9375 66.875 75.9375C68.125 78.4375 69.6875 80.9375 71.25 83.125H71.5625C78.75 80.9375 85.9375 77.5 93.4375 72.1875V71.875C95.3125 53.125 90.3125 36.875 80.3125 22.1875V22.1875ZM35.625 62.1875C31.25 62.1875 27.8125 58.125 27.8125 53.4375C27.8125 48.75 31.25 44.6875 35.625 44.6875C40 44.6875 43.4375 48.75 43.4375 53.4375C43.4375 58.125 40 62.1875 35.625 62.1875ZM64.6875 62.1875C60.3125 62.1875 56.875 58.125 56.875 53.4375C56.875 48.75 60.3125 44.6875 64.6875 44.6875C69.0625 44.6875 72.5 48.75 72.5 53.4375C72.5 58.125 69.0625 62.1875 64.6875 62.1875Z" fill="black"/>
</svg>
