<svg width="134" height="25" viewBox="0 0 134 25" fill="none" xmlns="http://www.w3.org/2000/svg">
<path d="M0.328127 24V0.959999H15.2081V4.576H4.18413V10.256H13.2881V13.872H4.18413V20.384H15.2081V24H0.328127ZM25.9589 24.48C24.7109 24.48 23.6549 24.2453 22.7909 23.776C21.9269 23.296 21.2709 22.6613 20.8229 21.872C20.3855 21.0827 20.1669 20.2133 20.1669 19.264C20.1669 18.432 20.3055 17.6853 20.5829 17.024C20.8602 16.352 21.2869 15.776 21.8629 15.296C22.4389 14.8053 23.1855 14.4053 24.1029 14.096C24.7962 13.872 25.6069 13.6693 26.5349 13.488C27.4735 13.3067 28.4869 13.1413 29.5749 12.992C30.6735 12.832 31.8202 12.6613 33.0149 12.48L31.6389 13.264C31.6495 12.0693 31.3829 11.1893 30.8389 10.624C30.2949 10.0587 29.3775 9.776 28.0869 9.776C27.3082 9.776 26.5562 9.95733 25.8309 10.32C25.1055 10.6827 24.5989 11.3067 24.3109 12.192L20.7909 11.088C21.2175 9.62667 22.0282 8.45333 23.2229 7.568C24.4282 6.68267 26.0495 6.24 28.0869 6.24C29.6229 6.24 30.9722 6.49067 32.1349 6.992C33.3082 7.49333 34.1775 8.31467 34.7429 9.456C35.0522 10.064 35.2389 10.688 35.3029 11.328C35.3669 11.9573 35.3989 12.6453 35.3989 13.392V24H32.0229V20.256L32.5829 20.864C31.8042 22.112 30.8922 23.0293 29.8469 23.616C28.8122 24.192 27.5162 24.48 25.9589 24.48ZM26.7269 21.408C27.6015 21.408 28.3482 21.2533 28.9669 20.944C29.5855 20.6347 30.0762 20.256 30.4389 19.808C30.8122 19.36 31.0629 18.9387 31.1909 18.544C31.3935 18.0533 31.5055 17.4933 31.5269 16.864C31.5589 16.224 31.5749 15.7067 31.5749 15.312L32.7589 15.664C31.5962 15.8453 30.5989 16.0053 29.7669 16.144C28.9349 16.2827 28.2202 16.416 27.6229 16.544C27.0255 16.6613 26.4975 16.7947 26.0389 16.944C25.5909 17.104 25.2122 17.2907 24.9029 17.504C24.5935 17.7173 24.3535 17.9627 24.1829 18.24C24.0229 18.5173 23.9429 18.8427 23.9429 19.216C23.9429 19.6427 24.0495 20.0213 24.2629 20.352C24.4762 20.672 24.7855 20.928 25.1909 21.12C25.6069 21.312 26.1189 21.408 26.7269 21.408ZM41.6444 24V6.72H45.0524V10.928L44.6364 10.384C44.8497 9.808 45.1324 9.28533 45.4844 8.816C45.847 8.336 46.279 7.94133 46.7804 7.632C47.207 7.344 47.6764 7.12 48.1884 6.96C48.711 6.78933 49.2444 6.688 49.7884 6.656C50.3324 6.61333 50.8604 6.63467 51.3724 6.72V10.32C50.8604 10.1707 50.2684 10.1227 49.5964 10.176C48.935 10.2293 48.3377 10.416 47.8044 10.736C47.271 11.024 46.8337 11.392 46.4924 11.84C46.1617 12.288 45.9164 12.8 45.7564 13.376C45.5964 13.9413 45.5164 14.5547 45.5164 15.216V24H41.6444ZM56.5056 24V0.959999H65.4016C66.6923 0.959999 67.8176 1.22667 68.7776 1.76C69.7376 2.29333 70.4843 3.01333 71.0176 3.92C71.551 4.816 71.8176 5.808 71.8176 6.896C71.8176 8.13333 71.487 9.23733 70.8256 10.208C70.1643 11.168 69.279 11.8347 68.1696 12.208L68.1376 11.424C69.631 11.8507 70.8043 12.5973 71.6576 13.664C72.511 14.7307 72.9376 16.0213 72.9376 17.536C72.9376 18.8693 72.655 20.0213 72.0896 20.992C71.5243 21.952 70.7296 22.6933 69.7056 23.216C68.6816 23.7387 67.4923 24 66.1376 24H56.5056ZM58.8736 21.744H65.5616C66.5003 21.744 67.343 21.5787 68.0896 21.248C68.8363 20.9067 69.423 20.4267 69.8496 19.808C70.287 19.1893 70.5056 18.4427 70.5056 17.568C70.5056 16.7147 70.3083 15.9467 69.9136 15.264C69.519 14.5813 68.9803 14.0373 68.2976 13.632C67.6256 13.216 66.8576 13.008 65.9936 13.008H58.8736V21.744ZM58.8736 10.784H65.3856C66.1216 10.784 66.7936 10.6187 67.4016 10.288C68.0096 9.94667 68.4896 9.48267 68.8416 8.896C69.2043 8.30933 69.3856 7.632 69.3856 6.864C69.3856 5.776 69.007 4.89067 68.2496 4.208C67.503 3.52533 66.5483 3.184 65.3856 3.184H58.8736V10.784ZM84.8186 24.432C83.784 24.432 82.8773 24.272 82.0986 23.952C81.3306 23.632 80.6746 23.2 80.1306 22.656C79.5973 22.112 79.1653 21.4933 78.8346 20.8C78.504 20.096 78.264 19.3547 78.1146 18.576C77.9653 17.7867 77.8906 17.0027 77.8906 16.224V6.72H80.2586V15.536C80.2586 16.4853 80.3493 17.3653 80.5306 18.176C80.712 18.9867 81 19.696 81.3946 20.304C81.8 20.9013 82.3173 21.3653 82.9466 21.696C83.5866 22.0267 84.36 22.192 85.2666 22.192C86.0986 22.192 86.8293 22.048 87.4586 21.76C88.0986 21.472 88.632 21.0613 89.0586 20.528C89.496 19.984 89.8266 19.328 90.0506 18.56C90.2746 17.7813 90.3866 16.9067 90.3866 15.936L92.0506 16.304C92.0506 18.0747 91.7413 19.5627 91.1226 20.768C90.504 21.9733 89.6506 22.8853 88.5626 23.504C87.4746 24.1227 86.2266 24.432 84.8186 24.432ZM90.6266 24V19.744H90.3866V6.72H92.7386V24H90.6266ZM105.995 24.48C104.384 24.48 103.008 24.08 101.867 23.28C100.725 22.4693 99.8506 21.376 99.2426 20C98.6346 18.624 98.3306 17.072 98.3306 15.344C98.3306 13.6267 98.6293 12.08 99.2266 10.704C99.8346 9.328 100.704 8.24 101.835 7.44C102.965 6.64 104.32 6.24 105.899 6.24C107.52 6.24 108.885 6.63467 109.995 7.424C111.104 8.21333 111.941 9.296 112.507 10.672C113.083 12.0373 113.371 13.5947 113.371 15.344C113.371 17.0613 113.088 18.6133 112.523 20C111.957 21.376 111.125 22.4693 110.027 23.28C108.928 24.08 107.584 24.48 105.995 24.48ZM106.235 22.288C107.461 22.288 108.475 21.9893 109.275 21.392C110.075 20.7947 110.672 19.9733 111.067 18.928C111.461 17.872 111.659 16.6773 111.659 15.344C111.659 13.9893 111.461 12.7947 111.067 11.76C110.672 10.7147 110.075 9.89867 109.275 9.312C108.485 8.72533 107.488 8.432 106.283 8.432C105.045 8.432 104.021 8.736 103.211 9.344C102.4 9.952 101.797 10.7787 101.403 11.824C101.019 12.8693 100.827 14.0427 100.827 15.344C100.827 16.656 101.024 17.84 101.419 18.896C101.824 19.9413 102.427 20.768 103.227 21.376C104.027 21.984 105.029 22.288 106.235 22.288ZM111.659 24V10.992H111.403V0.959999H113.771V24H111.659ZM126.787 24.464C124.761 24.464 123.091 24.0267 121.779 23.152C120.478 22.2773 119.678 21.0613 119.379 19.504L121.779 19.104C122.035 20.0853 122.617 20.8693 123.523 21.456C124.441 22.032 125.571 22.32 126.915 22.32C128.227 22.32 129.262 22.048 130.019 21.504C130.777 20.9493 131.155 20.1973 131.155 19.248C131.155 18.7147 131.033 18.2827 130.787 17.952C130.553 17.6107 130.067 17.296 129.331 17.008C128.595 16.72 127.497 16.3787 126.035 15.984C124.467 15.5573 123.241 15.1307 122.355 14.704C121.47 14.2773 120.841 13.7867 120.467 13.232C120.094 12.6667 119.907 11.9787 119.907 11.168C119.907 10.1867 120.185 9.328 120.739 8.592C121.294 7.84533 122.062 7.26933 123.043 6.864C124.025 6.448 125.166 6.24 126.467 6.24C127.769 6.24 128.931 6.45333 129.955 6.88C130.99 7.296 131.822 7.88267 132.451 8.64C133.081 9.39733 133.454 10.2773 133.571 11.28L131.171 11.712C131.011 10.6987 130.505 9.89867 129.651 9.312C128.809 8.71467 127.737 8.40533 126.435 8.384C125.209 8.352 124.211 8.58667 123.443 9.088C122.675 9.57867 122.291 10.2347 122.291 11.056C122.291 11.5147 122.43 11.9093 122.707 12.24C122.985 12.56 123.486 12.864 124.211 13.152C124.947 13.44 125.993 13.7547 127.347 14.096C128.937 14.5013 130.185 14.928 131.091 15.376C131.998 15.824 132.643 16.352 133.027 16.96C133.411 17.568 133.603 18.32 133.603 19.216C133.603 20.848 132.995 22.1333 131.779 23.072C130.574 24 128.91 24.464 126.787 24.464Z" fill="white"/>
</svg>
