<svg width="75" height="75" viewBox="0 0 75 75" fill="none" xmlns="http://www.w3.org/2000/svg">
<path d="M12.5 56.25C11.6146 56.25 10.8729 55.95 10.275 55.35C9.675 54.7521 9.375 54.0104 9.375 53.125C9.375 52.2396 9.675 51.4979 10.275 50.9C10.8729 50.3 11.6146 50 12.5 50H62.5C63.3854 50 64.1271 50.3 64.725 50.9C65.325 51.4979 65.625 52.2396 65.625 53.125C65.625 54.0104 65.325 54.7521 64.725 55.35C64.1271 55.95 63.3854 56.25 62.5 56.25H12.5ZM12.5 40.625C11.6146 40.625 10.8729 40.325 10.275 39.725C9.675 39.1271 9.375 38.3854 9.375 37.5C9.375 36.6146 9.675 35.8719 10.275 35.2719C10.8729 34.674 11.6146 34.375 12.5 34.375H62.5C63.3854 34.375 64.1271 34.674 64.725 35.2719C65.325 35.8719 65.625 36.6146 65.625 37.5C65.625 38.3854 65.325 39.1271 64.725 39.725C64.1271 40.325 63.3854 40.625 62.5 40.625H12.5ZM12.5 25C11.6146 25 10.8729 24.701 10.275 24.1031C9.675 23.5031 9.375 22.7604 9.375 21.875C9.375 20.9896 9.675 20.2469 10.275 19.6469C10.8729 19.049 11.6146 18.75 12.5 18.75H62.5C63.3854 18.75 64.1271 19.049 64.725 19.6469C65.325 20.2469 65.625 20.9896 65.625 21.875C65.625 22.7604 65.325 23.5031 64.725 24.1031C64.1271 24.701 63.3854 25 62.5 25H12.5Z" fill="white"/>
</svg>
